<?xml version="1.0" encoding="UTF-8"?>
<svg version="1.1" xmlns="http://www.w3.org/2000/svg" width="350" height="320">
<path d="M0 0 C115.5 0 231 0 350 0 C350 105.6 350 211.2 350 320 C234.5 320 119 320 0 320 C0 214.4 0 108.8 0 0 Z " fill="#228342" transform="translate(0,0)"/>
<path d="M0 0 C115.5 0 231 0 350 0 C350 105.6 350 211.2 350 320 C234.5 320 119 320 0 320 C0 214.4 0 108.8 0 0 Z M22 4 C22 6.97 22 9.94 22 13 C19.03 13 16.06 13 13 13 C13 15.97 13 18.94 13 22 C10.03 22 7.06 22 4 22 C4 113.08 4 204.16 4 298 C6.97 298 9.94 298 13 298 C13 300.97 13 303.94 13 307 C15.97 307 18.94 307 22 307 C22 309.97 22 312.94 22 316 C122.98 316 223.96 316 328 316 C328 313.03 328 310.06 328 307 C330.97 307 333.94 307 337 307 C337 304.03 337 301.06 337 298 C339.97 298 342.94 298 346 298 C346 206.92 346 115.84 346 22 C343.03 22 340.06 22 337 22 C337 19.03 337 16.06 337 13 C334.03 13 331.06 13 328 13 C328 10.03 328 7.06 328 4 C227.02 4 126.04 4 22 4 Z " fill="#0A6628" transform="translate(0,0)"/>
<path d="M0 0 C15.84 0 31.68 0 48 0 C48 5.28 48 10.56 48 16 C53.28 16 58.56 16 64 16 C64 31.84 64 47.68 64 64 C58.72 64 53.44 64 48 64 C48 69.28 48 74.56 48 80 C32.16 80 16.32 80 0 80 C0 74.72 0 69.44 0 64 C-5.28 64 -10.56 64 -16 64 C-16 48.16 -16 32.32 -16 16 C-10.72 16 -5.44 16 0 16 C0 10.72 0 5.44 0 0 Z " fill="#24FFD4" transform="translate(213,73)"/>
<path d="M0 0 C15.84 0 31.68 0 48 0 C48 5.28 48 10.56 48 16 C53.28 16 58.56 16 64 16 C64 31.84 64 47.68 64 64 C58.72 64 53.44 64 48 64 C48 69.28 48 74.56 48 80 C32.16 80 16.32 80 0 80 C0 74.72 0 69.44 0 64 C-5.28 64 -10.56 64 -16 64 C-16 48.16 -16 32.32 -16 16 C-10.72 16 -5.44 16 0 16 C0 10.72 0 5.44 0 0 Z " fill="#24FFD4" transform="translate(85,73)"/>
<path d="M0 0 C26.4 0 52.8 0 80 0 C80 5.28 80 10.56 80 16 C53.6 16 27.2 16 0 16 C0 10.72 0 5.44 0 0 Z " fill="#24FFD4" transform="translate(133,25)"/>
<path d="M0 0 C9.57 0 19.14 0 29 0 C29 3.63 29 7.26 29 11 C22.07 11 15.14 11 8 11 C8 14.96 8 18.92 8 23 C12.62 23 17.24 23 22 23 C22 26.63 22 30.26 22 34 C17.38 34 12.76 34 8 34 C8 41.59 8 49.18 8 57 C14.93 57 21.86 57 29 57 C29 60.96 29 64.92 29 69 C19.43 69 9.86 69 0 69 C0 46.23 0 23.46 0 0 Z " fill="#24FFD4" transform="translate(296,227)"/>
<path d="M0 0 C2.31 0 4.62 0 7 0 C7 7.59 7 15.18 7 23 C11.95 23 16.9 23 22 23 C22 15.41 22 7.82 22 0 C24.31 0 26.62 0 29 0 C29 19.14 29 38.28 29 58 C26.69 58 24.38 58 22 58 C22 50.41 22 42.82 22 35 C17.05 35 12.1 35 7 35 C7 42.59 7 50.18 7 58 C4.69 58 2.38 58 0 58 C0 38.86 0 19.72 0 0 Z " fill="#24FFD4" transform="translate(24,238)"/>
<path d="M0 0 C2.31 0 4.62 0 7 0 C7 7.59 7 15.18 7 23 C11.62 23 16.24 23 21 23 C21 15.41 21 7.82 21 0 C23.31 0 25.62 0 28 0 C28 19.14 28 38.28 28 58 C25.69 58 23.38 58 21 58 C21 50.41 21 42.82 21 35 C16.38 35 11.76 35 7 35 C7 42.59 7 50.18 7 58 C4.69 58 2.38 58 0 58 C0 38.86 0 19.72 0 0 Z " fill="#24FFD4" transform="translate(218,238)"/>
<path d="M0 0 C11.88 0 23.76 0 36 0 C36 3.63 36 7.26 36 11 C31.38 11 26.76 11 22 11 C22 30.14 22 49.28 22 69 C19.69 69 17.38 69 15 69 C15 49.86 15 30.72 15 11 C10.05 11 5.1 11 0 11 C0 7.37 0 3.74 0 0 Z " fill="#24FFD4" transform="translate(253,227)"/>
<path d="M0 0 C15.84 0 31.68 0 48 0 C48 5.28 48 10.56 48 16 C32.16 16 16.32 16 0 16 C0 10.72 0 5.44 0 0 Z " fill="#24FFD4" transform="translate(149,185)"/>
<path d="M0 0 C5.28 0 10.56 0 16 0 C16 15.84 16 31.68 16 48 C10.72 48 5.44 48 0 48 C0 32.16 0 16.32 0 0 Z " fill="#228342" transform="translate(229,89)"/>
<path d="M0 0 C5.28 0 10.56 0 16 0 C16 15.84 16 31.68 16 48 C10.72 48 5.44 48 0 48 C0 32.16 0 16.32 0 0 Z " fill="#228342" transform="translate(101,89)"/>
<path d="M0 0 C2.31 0 4.62 0 7 0 C7 18.81 7 37.62 7 57 C14.26 57 21.52 57 29 57 C29 60.96 29 64.92 29 69 C19.43 69 9.86 69 0 69 C0 46.23 0 23.46 0 0 Z " fill="#24FFD4" transform="translate(60,227)"/>
<path d="M0 0 C4.62 0 9.24 0 14 0 C14 15.18 14 30.36 14 46 C7.07 46 0.14 46 -7 46 C-7 42.04 -7 38.08 -7 34 C-2.38 34 2.24 34 7 34 C7 26.41 7 18.82 7 11 C4.69 11 2.38 11 0 11 C0 7.37 0 3.74 0 0 Z " fill="#24FFD4" transform="translate(110,250)"/>
<path d="M0 0 C2.31 0 4.62 0 7 0 C7 22.77 7 45.54 7 69 C4.69 69 2.38 69 0 69 C0 53.82 0 38.64 0 23 C-2.31 23 -4.62 23 -7 23 C-7 19.04 -7 15.08 -7 11 C-4.69 11 -2.38 11 0 11 C0 7.37 0 3.74 0 0 Z " fill="#24FFD4" transform="translate(203,227)"/>
<path d="M0 0 C2.31 0 4.62 0 7 0 C7 3.63 7 7.26 7 11 C9.31 11 11.62 11 14 11 C14 14.96 14 18.92 14 23 C11.69 23 9.38 23 7 23 C7 38.18 7 53.36 7 69 C4.69 69 2.38 69 0 69 C0 46.23 0 23.46 0 0 Z " fill="#24FFD4" transform="translate(175,227)"/>
<path d="M0 0 C10.56 0 21.12 0 32 0 C32 5.28 32 10.56 32 16 C21.44 16 10.88 16 0 16 C0 10.72 0 5.44 0 0 Z " fill="#24FFD4" transform="translate(213,41)"/>
<path d="M0 0 C10.56 0 21.12 0 32 0 C32 5.28 32 10.56 32 16 C21.44 16 10.88 16 0 16 C0 10.72 0 5.44 0 0 Z " fill="#24FFD4" transform="translate(101,41)"/>
<path d="M0 0 C6.93 0 13.86 0 21 0 C21 15.18 21 30.36 21 46 C14.07 46 7.14 46 0 46 C0 30.82 0 15.64 0 0 Z M3 3 C3 16.2 3 29.4 3 43 C7.95 43 12.9 43 18 43 C18 29.8 18 16.6 18 3 C13.05 3 8.1 3 3 3 Z " fill="#000000" transform="translate(139,238)"/>
<path d="M0 0 C5.28 0 10.56 0 16 0 C16 15.84 16 31.68 16 48 C10.72 48 5.44 48 0 48 C0 32.16 0 16.32 0 0 Z M3 3 C3 16.86 3 30.72 3 45 C6.3 45 9.6 45 13 45 C13 31.14 13 17.28 13 3 C9.7 3 6.4 3 3 3 Z " fill="#000000" transform="translate(229,89)"/>
<path d="M0 0 C5.28 0 10.56 0 16 0 C16 15.84 16 31.68 16 48 C10.72 48 5.44 48 0 48 C0 32.16 0 16.32 0 0 Z M3 3 C3 16.86 3 30.72 3 45 C6.3 45 9.6 45 13 45 C13 31.14 13 17.28 13 3 C9.7 3 6.4 3 3 3 Z " fill="#000000" transform="translate(101,89)"/>
<path d="M0 0 C4.95 0 9.9 0 15 0 C15 7.59 15 15.18 15 23 C10.05 23 5.1 23 0 23 C0 15.41 0 7.82 0 0 Z " fill="#000000" transform="translate(31,238)"/>
<path d="M0 0 C4.62 0 9.24 0 14 0 C14 7.59 14 15.18 14 23 C9.38 23 4.76 23 0 23 C0 15.41 0 7.82 0 0 Z " fill="#000000" transform="translate(225,238)"/>
<path d="M0 0 C2.31 0 4.62 0 7 0 C7 15.18 7 30.36 7 46 C4.69 46 2.38 46 0 46 C0 30.82 0 15.64 0 0 Z " fill="#24FFD4" transform="translate(160,238)"/>
<path d="M0 0 C2.31 0 4.62 0 7 0 C7 15.18 7 30.36 7 46 C4.69 46 2.38 46 0 46 C0 30.82 0 15.64 0 0 Z " fill="#24FFD4" transform="translate(132,238)"/>
<path d="M0 0 C2.31 0 4.62 0 7 0 C7 15.18 7 30.36 7 46 C4.69 46 2.38 46 0 46 C0 30.82 0 15.64 0 0 Z " fill="#24FFD4" transform="translate(96,238)"/>
<path d="M0 0 C26.4 0 52.8 0 80 0 C80 5.28 80 10.56 80 16 C79.01 16 78.02 16 77 16 C77 11.71 77 7.42 77 3 C52.58 3 28.16 3 3 3 C3 7.29 3 11.58 3 16 C2.01 16 1.02 16 0 16 C0 10.72 0 5.44 0 0 Z " fill="#000000" transform="translate(133,41)"/>
<path d="M0 0 C6.93 0 13.86 0 21 0 C21 0.99 21 1.98 21 3 C15.06 3 9.12 3 3 3 C3 16.2 3 29.4 3 43 C5.64 43 8.28 43 11 43 C11 37.39 11 31.78 11 26 C9.68 26 8.36 26 7 26 C7 25.01 7 24.02 7 23 C9.31 23 11.62 23 14 23 C14 30.59 14 38.18 14 46 C9.38 46 4.76 46 0 46 C0 30.82 0 15.64 0 0 Z " fill="#000000" transform="translate(103,238)"/>
<path d="M0 0 C5.28 0 10.56 0 16 0 C16 5.28 16 10.56 16 16 C10.72 16 5.44 16 0 16 C0 10.72 0 5.44 0 0 Z " fill="#24FFD4" transform="translate(197,169)"/>
<path d="M0 0 C5.28 0 10.56 0 16 0 C16 5.28 16 10.56 16 16 C10.72 16 5.44 16 0 16 C0 10.72 0 5.44 0 0 Z " fill="#24FFD4" transform="translate(133,169)"/>
<path d="M0 0 C6.93 0 13.86 0 21 0 C21 3.96 21 7.92 21 12 C14.07 12 7.14 12 0 12 C0 8.04 0 4.08 0 0 Z " fill="#24FFD4" transform="translate(139,284)"/>
<path d="M0 0 C2.97 0 5.94 0 9 0 C9 5.94 9 11.88 9 18 C3.06 18 -2.88 18 -9 18 C-9 15.03 -9 12.06 -9 9 C-6.03 9 -3.06 9 0 9 C0 6.03 0 3.06 0 0 Z " fill="#000000" transform="translate(341,302)"/>
<path d="M0 0 C2.97 0 5.94 0 9 0 C9 2.97 9 5.94 9 9 C11.97 9 14.94 9 18 9 C18 11.97 18 14.94 18 18 C12.06 18 6.12 18 0 18 C0 12.06 0 6.12 0 0 Z " fill="#000000" transform="translate(0,302)"/>
<path d="M0 0 C5.94 0 11.88 0 18 0 C18 5.94 18 11.88 18 18 C15.03 18 12.06 18 9 18 C9 15.03 9 12.06 9 9 C6.03 9 3.06 9 0 9 C0 6.03 0 3.06 0 0 Z " fill="#000000" transform="translate(332,0)"/>
<path d="M0 0 C5.94 0 11.88 0 18 0 C18 2.97 18 5.94 18 9 C15.03 9 12.06 9 9 9 C9 11.97 9 14.94 9 18 C6.03 18 3.06 18 0 18 C0 12.06 0 6.12 0 0 Z " fill="#000000" transform="translate(0,0)"/>
<path d="M0 0 C26.4 0 52.8 0 80 0 C80 0.99 80 1.98 80 3 C53.6 3 27.2 3 0 3 C0 2.01 0 1.02 0 0 Z " fill="#000000" transform="translate(133,22)"/>
<path d="M0 0 C6.93 0 13.86 0 21 0 C21 3.63 21 7.26 21 11 C14.07 11 7.14 11 0 11 C0 7.37 0 3.74 0 0 Z " fill="#24FFD4" transform="translate(139,227)"/>
<path d="M0 0 C6.93 0 13.86 0 21 0 C21 3.63 21 7.26 21 11 C14.07 11 7.14 11 0 11 C0 7.37 0 3.74 0 0 Z " fill="#24FFD4" transform="translate(103,227)"/>
<path d="M0 0 C0.99 0 1.98 0 3 0 C3 17.82 3 35.64 3 54 C9.27 54 15.54 54 22 54 C22 54.99 22 55.98 22 57 C14.74 57 7.48 57 0 57 C0 38.19 0 19.38 0 0 Z " fill="#000000" transform="translate(67,227)"/>
<path d="M0 0 C0.99 0 1.98 0 3 0 C3 4.29 3 8.58 3 13 C16.86 13 30.72 13 45 13 C45 8.71 45 4.42 45 0 C45.99 0 46.98 0 48 0 C48 5.28 48 10.56 48 16 C32.16 16 16.32 16 0 16 C0 10.72 0 5.44 0 0 Z " fill="#000000" transform="translate(149,169)"/>
<path d="M0 0 C4.95 0 9.9 0 15 0 C15 19.14 15 38.28 15 58 C14.01 58 13.02 58 12 58 C12 39.85 12 21.7 12 3 C8.04 3 4.08 3 0 3 C0 2.01 0 1.02 0 0 Z " fill="#000000" transform="translate(253,238)"/>
<path d="M0 0 C4.62 0 9.24 0 14 0 C14 0.99 14 1.98 14 3 C10.37 3 6.74 3 3 3 C3 21.15 3 39.3 3 58 C2.01 58 1.02 58 0 58 C0 38.86 0 19.72 0 0 Z " fill="#000000" transform="translate(275,238)"/>
<path d="M0 0 C0.99 0 1.98 0 3 0 C3 22.77 3 45.54 3 69 C2.01 69 1.02 69 0 69 C0 46.23 0 23.46 0 0 Z " fill="#000000" transform="translate(293,227)"/>
<path d="M0 0 C0.99 0 1.98 0 3 0 C3 22.77 3 45.54 3 69 C2.01 69 1.02 69 0 69 C0 46.23 0 23.46 0 0 Z " fill="#000000" transform="translate(210,227)"/>
<path d="M0 0 C0.99 0 1.98 0 3 0 C3 22.77 3 45.54 3 69 C2.01 69 1.02 69 0 69 C0 46.23 0 23.46 0 0 Z " fill="#000000" transform="translate(172,227)"/>
<path d="M0 0 C0.99 0 1.98 0 3 0 C3 22.77 3 45.54 3 69 C2.01 69 1.02 69 0 69 C0 46.23 0 23.46 0 0 Z " fill="#000000" transform="translate(57,227)"/>
<path d="M0 0 C2.31 0 4.62 0 7 0 C7 15.18 7 30.36 7 46 C6.01 46 5.02 46 4 46 C3.505 28.675 3.505 28.675 3 11 C2.01 11 1.02 11 0 11 C0 7.37 0 3.74 0 0 Z " fill="#000000" transform="translate(196,250)"/>
<path d="M0 0 C2.31 0 4.62 0 7 0 C7 3.63 7 7.26 7 11 C6.01 11 5.02 11 4 11 C3.67 22.55 3.34 34.1 3 46 C2.01 46 1.02 46 0 46 C0 30.82 0 15.64 0 0 Z " fill="#000000" transform="translate(182,250)"/>
<path d="M0 0 C0.99 0 1.98 0 3 0 C3 19.14 3 38.28 3 58 C2.01 58 1.02 58 0 58 C0 38.86 0 19.72 0 0 Z " fill="#000000" transform="translate(246,238)"/>
<path d="M0 0 C0.99 0 1.98 0 3 0 C3 19.14 3 38.28 3 58 C2.01 58 1.02 58 0 58 C0 38.86 0 19.72 0 0 Z " fill="#000000" transform="translate(215,238)"/>
<path d="M0 0 C0.99 0 1.98 0 3 0 C3 19.14 3 38.28 3 58 C2.01 58 1.02 58 0 58 C0 38.86 0 19.72 0 0 Z " fill="#000000" transform="translate(53,238)"/>
<path d="M0 0 C0.99 0 1.98 0 3 0 C3 19.14 3 38.28 3 58 C2.01 58 1.02 58 0 58 C0 38.86 0 19.72 0 0 Z " fill="#000000" transform="translate(21,238)"/>
<path d="M0 0 C4.95 0 9.9 0 15 0 C15 7.59 15 15.18 15 23 C14.01 23 13.02 23 12 23 C12 16.4 12 9.8 12 3 C9.03 3 6.06 3 3 3 C3 9.6 3 16.2 3 23 C2.01 23 1.02 23 0 23 C0 15.41 0 7.82 0 0 Z " fill="#000000" transform="translate(31,273)"/>
<path d="M0 0 C4.95 0 9.9 0 15 0 C15 3.63 15 7.26 15 11 C10.05 11 5.1 11 0 11 C0 7.37 0 3.74 0 0 Z " fill="#24FFD4" transform="translate(31,227)"/>
<path d="M0 0 C4.62 0 9.24 0 14 0 C14 7.59 14 15.18 14 23 C13.01 23 12.02 23 11 23 C11 16.4 11 9.8 11 3 C8.36 3 5.72 3 3 3 C3 9.6 3 16.2 3 23 C2.01 23 1.02 23 0 23 C0 15.41 0 7.82 0 0 Z " fill="#000000" transform="translate(225,273)"/>
<path d="M0 0 C4.62 0 9.24 0 14 0 C14 0.99 14 1.98 14 3 C10.37 3 6.74 3 3 3 C3 8.61 3 14.22 3 20 C8.94 20 14.88 20 21 20 C21 20.99 21 21.98 21 23 C14.07 23 7.14 23 0 23 C0 15.41 0 7.82 0 0 Z " fill="#000000" transform="translate(304,261)"/>
<path d="M0 0 C4.62 0 9.24 0 14 0 C14 3.63 14 7.26 14 11 C9.38 11 4.76 11 0 11 C0 7.37 0 3.74 0 0 Z " fill="#24FFD4" transform="translate(225,227)"/>
<path d="M0 0 C2.97 0 5.94 0 9 0 C9 5.61 9 11.22 9 17 C6.03 17 3.06 17 0 17 C0 11.39 0 5.78 0 0 Z " fill="#228342" transform="translate(34,241)"/>
<path d="M0 0 C1.32 0 2.64 0 4 0 C4 0.99 4 1.98 4 3 C5.32 3 6.64 3 8 3 C8 8.61 8 14.22 8 20 C5.36 20 2.72 20 0 20 C0 13.4 0 6.8 0 0 Z " fill="#228342" transform="translate(106,261)"/>
<path d="M0 0 C15.84 0 31.68 0 48 0 C48 0.99 48 1.98 48 3 C32.16 3 16.32 3 0 3 C0 2.01 0 1.02 0 0 Z " fill="#000000" transform="translate(149,201)"/>
<path d="M0 0 C15.84 0 31.68 0 48 0 C48 0.99 48 1.98 48 3 C32.16 3 16.32 3 0 3 C0 2.01 0 1.02 0 0 Z " fill="#000000" transform="translate(213,153)"/>
<path d="M0 0 C15.84 0 31.68 0 48 0 C48 0.99 48 1.98 48 3 C32.16 3 16.32 3 0 3 C0 2.01 0 1.02 0 0 Z " fill="#000000" transform="translate(85,153)"/>
<path d="M0 0 C0.99 0 1.98 0 3 0 C3 15.84 3 31.68 3 48 C2.01 48 1.02 48 0 48 C0 32.16 0 16.32 0 0 Z " fill="#000000" transform="translate(277,89)"/>
<path d="M0 0 C0.99 0 1.98 0 3 0 C3 15.84 3 31.68 3 48 C2.01 48 1.02 48 0 48 C0 32.16 0 16.32 0 0 Z " fill="#000000" transform="translate(194,89)"/>
<path d="M0 0 C0.99 0 1.98 0 3 0 C3 15.84 3 31.68 3 48 C2.01 48 1.02 48 0 48 C0 32.16 0 16.32 0 0 Z " fill="#000000" transform="translate(149,89)"/>
<path d="M0 0 C0.99 0 1.98 0 3 0 C3 15.84 3 31.68 3 48 C2.01 48 1.02 48 0 48 C0 32.16 0 16.32 0 0 Z " fill="#000000" transform="translate(66,89)"/>
<path d="M0 0 C15.84 0 31.68 0 48 0 C48 0.99 48 1.98 48 3 C32.16 3 16.32 3 0 3 C0 2.01 0 1.02 0 0 Z " fill="#000000" transform="translate(213,70)"/>
<path d="M0 0 C15.84 0 31.68 0 48 0 C48 0.99 48 1.98 48 3 C32.16 3 16.32 3 0 3 C0 2.01 0 1.02 0 0 Z " fill="#000000" transform="translate(85,70)"/>
<path d="M0 0 C0.99 0 1.98 0 3 0 C3 15.18 3 30.36 3 46 C2.01 46 1.02 46 0 46 C0 30.82 0 15.64 0 0 Z " fill="#000000" transform="translate(124,250)"/>
<path d="M0 0 C0.99 0 1.98 0 3 0 C3 15.18 3 30.36 3 46 C2.01 46 1.02 46 0 46 C0 30.82 0 15.64 0 0 Z " fill="#000000" transform="translate(167,238)"/>
<path d="M0 0 C0.99 0 1.98 0 3 0 C3 15.18 3 30.36 3 46 C2.01 46 1.02 46 0 46 C0 30.82 0 15.64 0 0 Z " fill="#000000" transform="translate(129,238)"/>
<path d="M0 0 C0.99 0 1.98 0 3 0 C3 15.18 3 30.36 3 46 C2.01 46 1.02 46 0 46 C0 30.82 0 15.64 0 0 Z " fill="#000000" transform="translate(93,238)"/>
<path d="M0 0 C2.64 0 5.28 0 8 0 C8 5.61 8 11.22 8 17 C5.36 17 2.72 17 0 17 C0 11.39 0 5.78 0 0 Z " fill="#228342" transform="translate(228,241)"/>
<path d="M0 0 C0.99 0 1.98 0 3 0 C3 5.28 3 10.56 3 16 C-7.56 16 -18.12 16 -29 16 C-29 15.01 -29 14.02 -29 13 C-19.43 13 -9.86 13 0 13 C0 8.71 0 4.42 0 0 Z " fill="#000000" transform="translate(130,25)"/>
<path d="M0 0 C0.99 0 1.98 0 3 0 C3 4.29 3 8.58 3 13 C12.57 13 22.14 13 32 13 C32 13.99 32 14.98 32 16 C21.44 16 10.88 16 0 16 C0 10.72 0 5.44 0 0 Z " fill="#000000" transform="translate(213,25)"/>
<path d="M0 0 C6.93 0 13.86 0 21 0 C21 0.99 21 1.98 21 3 C15.06 3 9.12 3 3 3 C3 4.98 3 6.96 3 9 C6.63 9 10.26 9 14 9 C14 9.99 14 10.98 14 12 C9.38 12 4.76 12 0 12 C0 8.04 0 4.08 0 0 Z " fill="#000000" transform="translate(304,238)"/>
<path d="M0 0 C11.88 0 23.76 0 36 0 C36 0.99 36 1.98 36 3 C24.12 3 12.24 3 0 3 C0 2.01 0 1.02 0 0 Z " fill="#000000" transform="translate(253,224)"/>
<path d="M0 0 C10.56 0 21.12 0 32 0 C32 0.99 32 1.98 32 3 C21.44 3 10.88 3 0 3 C0 2.01 0 1.02 0 0 Z " fill="#000000" transform="translate(213,57)"/>
<path d="M0 0 C10.56 0 21.12 0 32 0 C32 0.99 32 1.98 32 3 C21.44 3 10.88 3 0 3 C0 2.01 0 1.02 0 0 Z " fill="#000000" transform="translate(101,57)"/>
<path d="M0 0 C9.57 0 19.14 0 29 0 C29 0.99 29 1.98 29 3 C19.43 3 9.86 3 0 3 C0 2.01 0 1.02 0 0 Z " fill="#000000" transform="translate(296,296)"/>
<path d="M0 0 C9.57 0 19.14 0 29 0 C29 0.99 29 1.98 29 3 C19.43 3 9.86 3 0 3 C0 2.01 0 1.02 0 0 Z " fill="#000000" transform="translate(60,296)"/>
<path d="M0 0 C9.57 0 19.14 0 29 0 C29 0.99 29 1.98 29 3 C19.43 3 9.86 3 0 3 C0 2.01 0 1.02 0 0 Z " fill="#000000" transform="translate(296,224)"/>
<path d="M0 0 C5.28 0 10.56 0 16 0 C16 0.99 16 1.98 16 3 C11.71 3 7.42 3 3 3 C3 7.29 3 11.58 3 16 C2.01 16 1.02 16 0 16 C0 10.72 0 5.44 0 0 Z " fill="#000000" transform="translate(197,185)"/>
<path d="M0 0 C5.28 0 10.56 0 16 0 C16 5.28 16 10.56 16 16 C15.01 16 14.02 16 13 16 C13 11.71 13 7.42 13 3 C8.71 3 4.42 3 0 3 C0 2.01 0 1.02 0 0 Z " fill="#000000" transform="translate(133,185)"/>
<path d="M0 0 C5.28 0 10.56 0 16 0 C16 0.99 16 1.98 16 3 C11.71 3 7.42 3 3 3 C3 7.29 3 11.58 3 16 C2.01 16 1.02 16 0 16 C0 10.72 0 5.44 0 0 Z " fill="#000000" transform="translate(261,137)"/>
<path d="M0 0 C5.28 0 10.56 0 16 0 C16 5.28 16 10.56 16 16 C15.01 16 14.02 16 13 16 C13 11.71 13 7.42 13 3 C8.71 3 4.42 3 0 3 C0 2.01 0 1.02 0 0 Z " fill="#000000" transform="translate(197,137)"/>
<path d="M0 0 C5.28 0 10.56 0 16 0 C16 0.99 16 1.98 16 3 C11.71 3 7.42 3 3 3 C3 7.29 3 11.58 3 16 C2.01 16 1.02 16 0 16 C0 10.72 0 5.44 0 0 Z " fill="#000000" transform="translate(133,137)"/>
<path d="M0 0 C5.28 0 10.56 0 16 0 C16 5.28 16 10.56 16 16 C15.01 16 14.02 16 13 16 C13 11.71 13 7.42 13 3 C8.71 3 4.42 3 0 3 C0 2.01 0 1.02 0 0 Z " fill="#000000" transform="translate(69,137)"/>
<path d="M0 0 C0.99 0 1.98 0 3 0 C3 4.29 3 8.58 3 13 C7.29 13 11.58 13 16 13 C16 13.99 16 14.98 16 16 C10.72 16 5.44 16 0 16 C0 10.72 0 5.44 0 0 Z " fill="#000000" transform="translate(261,73)"/>
<path d="M0 0 C0.99 0 1.98 0 3 0 C3 5.28 3 10.56 3 16 C-2.28 16 -7.56 16 -13 16 C-13 15.01 -13 14.02 -13 13 C-8.71 13 -4.42 13 0 13 C0 8.71 0 4.42 0 0 Z " fill="#000000" transform="translate(210,73)"/>
<path d="M0 0 C0.99 0 1.98 0 3 0 C3 4.29 3 8.58 3 13 C7.29 13 11.58 13 16 13 C16 13.99 16 14.98 16 16 C10.72 16 5.44 16 0 16 C0 10.72 0 5.44 0 0 Z " fill="#000000" transform="translate(133,73)"/>
<path d="M0 0 C0.99 0 1.98 0 3 0 C3 5.28 3 10.56 3 16 C-2.28 16 -7.56 16 -13 16 C-13 15.01 -13 14.02 -13 13 C-8.71 13 -4.42 13 0 13 C0 8.71 0 4.42 0 0 Z " fill="#000000" transform="translate(82,73)"/>
<path d="M0 0 C2.31 0 4.62 0 7 0 C7 3.63 7 7.26 7 11 C4.69 11 2.38 11 0 11 C0 7.37 0 3.74 0 0 Z " fill="#24FFD4" transform="translate(189,250)"/>
<path d="M0 0 C2.31 0 4.62 0 7 0 C7 3.96 7 7.92 7 12 C4.69 12 2.38 12 0 12 C0 8.04 0 4.08 0 0 Z " fill="#000000" transform="translate(189,238)"/>
<path d="M0 0 C6.93 0 13.86 0 21 0 C21 0.99 21 1.98 21 3 C14.07 3 7.14 3 0 3 C0 2.01 0 1.02 0 0 Z " fill="#000000" transform="translate(139,296)"/>
<path d="M0 0 C6.93 0 13.86 0 21 0 C21 0.99 21 1.98 21 3 C14.07 3 7.14 3 0 3 C0 2.01 0 1.02 0 0 Z " fill="#000000" transform="translate(103,296)"/>
<path d="M0 0 C6.93 0 13.86 0 21 0 C21 0.99 21 1.98 21 3 C14.07 3 7.14 3 0 3 C0 2.01 0 1.02 0 0 Z " fill="#000000" transform="translate(139,224)"/>
<path d="M0 0 C6.93 0 13.86 0 21 0 C21 0.99 21 1.98 21 3 C14.07 3 7.14 3 0 3 C0 2.01 0 1.02 0 0 Z " fill="#000000" transform="translate(103,224)"/>
<path d="M0 0 C2.31 0 4.62 0 7 0 C7 0.99 7 1.98 7 3 C5.68 3 4.36 3 3 3 C3 5.97 3 8.94 3 12 C2.01 12 1.02 12 0 12 C0 8.04 0 4.08 0 0 Z " fill="#000000" transform="translate(160,284)"/>
<path d="M0 0 C2.31 0 4.62 0 7 0 C7 3.96 7 7.92 7 12 C6.01 12 5.02 12 4 12 C4 9.03 4 6.06 4 3 C2.68 3 1.36 3 0 3 C0 2.01 0 1.02 0 0 Z " fill="#000000" transform="translate(132,284)"/>
<path d="M0 0 C2.31 0 4.62 0 7 0 C7 3.96 7 7.92 7 12 C6.01 12 5.02 12 4 12 C4 9.03 4 6.06 4 3 C2.68 3 1.36 3 0 3 C0 2.01 0 1.02 0 0 Z " fill="#000000" transform="translate(96,284)"/>
<path d="M0 0 C0.99 0 1.98 0 3 0 C3 5.28 3 10.56 3 16 C2.01 16 1.02 16 0 16 C0 10.72 0 5.44 0 0 Z " fill="#000000" transform="translate(213,169)"/>
<path d="M0 0 C0.99 0 1.98 0 3 0 C3 5.28 3 10.56 3 16 C2.01 16 1.02 16 0 16 C0 10.72 0 5.44 0 0 Z " fill="#000000" transform="translate(130,169)"/>
<path d="M0 0 C5.28 0 10.56 0 16 0 C16 0.99 16 1.98 16 3 C10.72 3 5.44 3 0 3 C0 2.01 0 1.02 0 0 Z " fill="#000000" transform="translate(197,166)"/>
<path d="M0 0 C5.28 0 10.56 0 16 0 C16 0.99 16 1.98 16 3 C10.72 3 5.44 3 0 3 C0 2.01 0 1.02 0 0 Z " fill="#000000" transform="translate(133,166)"/>
<path d="M0 0 C0.99 0 1.98 0 3 0 C3 5.28 3 10.56 3 16 C2.01 16 1.02 16 0 16 C0 10.72 0 5.44 0 0 Z " fill="#000000" transform="translate(245,41)"/>
<path d="M0 0 C0.99 0 1.98 0 3 0 C3 5.28 3 10.56 3 16 C2.01 16 1.02 16 0 16 C0 10.72 0 5.44 0 0 Z " fill="#000000" transform="translate(98,41)"/>
<path d="M0 0 C0.99 0 1.98 0 3 0 C3 2.64 3 5.28 3 8 C4.32 8 5.64 8 7 8 C7 8.99 7 9.98 7 11 C4.69 11 2.38 11 0 11 C0 7.37 0 3.74 0 0 Z " fill="#000000" transform="translate(239,227)"/>
<path d="M0 0 C0.99 0 1.98 0 3 0 C3 3.63 3 7.26 3 11 C0.69 11 -1.62 11 -4 11 C-4 10.01 -4 9.02 -4 8 C-2.68 8 -1.36 8 0 8 C0 5.36 0 2.72 0 0 Z " fill="#000000" transform="translate(222,227)"/>
<path d="M0 0 C0.99 0 1.98 0 3 0 C3 3.63 3 7.26 3 11 C0.69 11 -1.62 11 -4 11 C-4 10.01 -4 9.02 -4 8 C-2.68 8 -1.36 8 0 8 C0 5.36 0 2.72 0 0 Z " fill="#000000" transform="translate(200,227)"/>
<path d="M0 0 C0.99 0 1.98 0 3 0 C3 2.64 3 5.28 3 8 C4.32 8 5.64 8 7 8 C7 8.99 7 9.98 7 11 C4.69 11 2.38 11 0 11 C0 7.37 0 3.74 0 0 Z " fill="#000000" transform="translate(182,227)"/>
<path d="M0 0 C0.99 0 1.98 0 3 0 C3 2.64 3 5.28 3 8 C4.32 8 5.64 8 7 8 C7 8.99 7 9.98 7 11 C4.69 11 2.38 11 0 11 C0 7.37 0 3.74 0 0 Z " fill="#000000" transform="translate(160,227)"/>
<path d="M0 0 C0.99 0 1.98 0 3 0 C3 3.63 3 7.26 3 11 C0.69 11 -1.62 11 -4 11 C-4 10.01 -4 9.02 -4 8 C-2.68 8 -1.36 8 0 8 C0 5.36 0 2.72 0 0 Z " fill="#000000" transform="translate(136,227)"/>
<path d="M0 0 C0.99 0 1.98 0 3 0 C3 3.63 3 7.26 3 11 C0.69 11 -1.62 11 -4 11 C-4 10.01 -4 9.02 -4 8 C-2.68 8 -1.36 8 0 8 C0 5.36 0 2.72 0 0 Z " fill="#000000" transform="translate(100,227)"/>
<path d="M0 0 C0.99 0 1.98 0 3 0 C3 2.64 3 5.28 3 8 C4.32 8 5.64 8 7 8 C7 8.99 7 9.98 7 11 C4.69 11 2.38 11 0 11 C0 7.37 0 3.74 0 0 Z " fill="#000000" transform="translate(46,227)"/>
<path d="M0 0 C0.99 0 1.98 0 3 0 C3 3.63 3 7.26 3 11 C0.69 11 -1.62 11 -4 11 C-4 10.01 -4 9.02 -4 8 C-2.68 8 -1.36 8 0 8 C0 5.36 0 2.72 0 0 Z " fill="#000000" transform="translate(28,227)"/>
<path d="M0 0 C4.95 0 9.9 0 15 0 C15 0.99 15 1.98 15 3 C10.05 3 5.1 3 0 3 C0 2.01 0 1.02 0 0 Z " fill="#000000" transform="translate(31,224)"/>
<path d="M0 0 C4.62 0 9.24 0 14 0 C14 0.99 14 1.98 14 3 C9.38 3 4.76 3 0 3 C0 2.01 0 1.02 0 0 Z " fill="#000000" transform="translate(110,247)"/>
<path d="M0 0 C4.62 0 9.24 0 14 0 C14 0.99 14 1.98 14 3 C9.38 3 4.76 3 0 3 C0 2.01 0 1.02 0 0 Z " fill="#000000" transform="translate(225,224)"/>
<path d="M0 0 C0.99 0 1.98 0 3 0 C3 3.96 3 7.92 3 12 C2.01 12 1.02 12 0 12 C0 8.04 0 4.08 0 0 Z " fill="#000000" transform="translate(325,284)"/>
<path d="M0 0 C0.99 0 1.98 0 3 0 C3 3.96 3 7.92 3 12 C2.01 12 1.02 12 0 12 C0 8.04 0 4.08 0 0 Z " fill="#000000" transform="translate(89,284)"/>
<path d="M0 0 C0.99 0 1.98 0 3 0 C3 3.63 3 7.26 3 11 C2.01 11 1.02 11 0 11 C0 7.37 0 3.74 0 0 Z " fill="#000000" transform="translate(318,250)"/>
<path d="M0 0 C0.99 0 1.98 0 3 0 C3 3.63 3 7.26 3 11 C2.01 11 1.02 11 0 11 C0 7.37 0 3.74 0 0 Z " fill="#000000" transform="translate(107,250)"/>
<path d="M0 0 C0.99 0 1.98 0 3 0 C3 3.63 3 7.26 3 11 C2.01 11 1.02 11 0 11 C0 7.37 0 3.74 0 0 Z " fill="#000000" transform="translate(325,227)"/>
<path d="M0 0 C0.99 0 1.98 0 3 0 C3 3.63 3 7.26 3 11 C2.01 11 1.02 11 0 11 C0 7.37 0 3.74 0 0 Z " fill="#000000" transform="translate(289,227)"/>
<path d="M0 0 C0.99 0 1.98 0 3 0 C3 3.63 3 7.26 3 11 C2.01 11 1.02 11 0 11 C0 7.37 0 3.74 0 0 Z " fill="#000000" transform="translate(250,227)"/>
<path d="M0 0 C0.99 0 1.98 0 3 0 C3 3.63 3 7.26 3 11 C2.01 11 1.02 11 0 11 C0 7.37 0 3.74 0 0 Z " fill="#000000" transform="translate(124,227)"/>
<path d="M0 0 C2.31 0 4.62 0 7 0 C7 0.99 7 1.98 7 3 C4.69 3 2.38 3 0 3 C0 2.01 0 1.02 0 0 Z " fill="#000000" transform="translate(268,296)"/>
<path d="M0 0 C2.31 0 4.62 0 7 0 C7 0.99 7 1.98 7 3 C4.69 3 2.38 3 0 3 C0 2.01 0 1.02 0 0 Z " fill="#000000" transform="translate(239,296)"/>
<path d="M0 0 C2.31 0 4.62 0 7 0 C7 0.99 7 1.98 7 3 C4.69 3 2.38 3 0 3 C0 2.01 0 1.02 0 0 Z " fill="#000000" transform="translate(218,296)"/>
<path d="M0 0 C2.31 0 4.62 0 7 0 C7 0.99 7 1.98 7 3 C4.69 3 2.38 3 0 3 C0 2.01 0 1.02 0 0 Z " fill="#000000" transform="translate(203,296)"/>
<path d="M0 0 C2.31 0 4.62 0 7 0 C7 0.99 7 1.98 7 3 C4.69 3 2.38 3 0 3 C0 2.01 0 1.02 0 0 Z " fill="#000000" transform="translate(175,296)"/>
<path d="M0 0 C2.31 0 4.62 0 7 0 C7 0.99 7 1.98 7 3 C4.69 3 2.38 3 0 3 C0 2.01 0 1.02 0 0 Z " fill="#000000" transform="translate(46,296)"/>
<path d="M0 0 C2.31 0 4.62 0 7 0 C7 0.99 7 1.98 7 3 C4.69 3 2.38 3 0 3 C0 2.01 0 1.02 0 0 Z " fill="#000000" transform="translate(24,296)"/>
<path d="M0 0 C2.31 0 4.62 0 7 0 C7 0.99 7 1.98 7 3 C4.69 3 2.38 3 0 3 C0 2.01 0 1.02 0 0 Z " fill="#000000" transform="translate(189,261)"/>
<path d="M0 0 C2.31 0 4.62 0 7 0 C7 0.99 7 1.98 7 3 C4.69 3 2.38 3 0 3 C0 2.01 0 1.02 0 0 Z " fill="#000000" transform="translate(203,224)"/>
<path d="M0 0 C2.31 0 4.62 0 7 0 C7 0.99 7 1.98 7 3 C4.69 3 2.38 3 0 3 C0 2.01 0 1.02 0 0 Z " fill="#000000" transform="translate(175,224)"/>
<path d="M0 0 C2.31 0 4.62 0 7 0 C7 0.99 7 1.98 7 3 C4.69 3 2.38 3 0 3 C0 2.01 0 1.02 0 0 Z " fill="#000000" transform="translate(60,224)"/>
</svg>
