<?xml version="1.0" encoding="UTF-8"?>
<svg version="1.1" xmlns="http://www.w3.org/2000/svg" width="307" height="277">
<path d="M0 0 C15.84 0 31.68 0 48 0 C48 0.99 48 1.98 48 3 C48.99 3 49.98 3 51 3 C51 7.29 51 11.58 51 16 C55.29 16 59.58 16 64 16 C64 16.99 64 17.98 64 19 C64.99 19 65.98 19 67 19 C67 34.84 67 50.68 67 67 C66.01 67 65.02 67 64 67 C64 67.99 64 68.98 64 70 C59.71 70 55.42 70 51 70 C51 74.29 51 78.58 51 83 C50.01 83 49.02 83 48 83 C48 83.99 48 84.98 48 86 C32.16 86 16.32 86 0 86 C0 85.01 0 84.02 0 83 C-0.99 83 -1.98 83 -3 83 C-3 78.71 -3 74.42 -3 70 C-7.29 70 -11.58 70 -16 70 C-16 69.01 -16 68.02 -16 67 C-16.99 67 -17.98 67 -19 67 C-19 51.16 -19 35.32 -19 19 C-18.01 19 -17.02 19 -16 19 C-16 18.01 -16 17.02 -16 16 C-11.71 16 -7.42 16 -3 16 C-3 11.71 -3 7.42 -3 3 C-2.01 3 -1.02 3 0 3 C0 2.01 0 1.02 0 0 Z M19 22 C19 35.86 19 49.72 19 64 C22.3 64 25.6 64 29 64 C29 50.14 29 36.28 29 22 C25.7 22 22.4 22 19 22 Z " fill="#24FFD4" transform="translate(192,48)"/>
<path d="M0 0 C15.84 0 31.68 0 48 0 C48 0.99 48 1.98 48 3 C48.99 3 49.98 3 51 3 C51 7.29 51 11.58 51 16 C55.29 16 59.58 16 64 16 C64 16.99 64 17.98 64 19 C64.99 19 65.98 19 67 19 C67 34.84 67 50.68 67 67 C66.01 67 65.02 67 64 67 C64 67.99 64 68.98 64 70 C59.71 70 55.42 70 51 70 C51 74.29 51 78.58 51 83 C50.01 83 49.02 83 48 83 C48 83.99 48 84.98 48 86 C32.16 86 16.32 86 0 86 C0 85.01 0 84.02 0 83 C-0.99 83 -1.98 83 -3 83 C-3 78.71 -3 74.42 -3 70 C-7.29 70 -11.58 70 -16 70 C-16 69.01 -16 68.02 -16 67 C-16.99 67 -17.98 67 -19 67 C-19 51.16 -19 35.32 -19 19 C-18.01 19 -17.02 19 -16 19 C-16 18.01 -16 17.02 -16 16 C-11.71 16 -7.42 16 -3 16 C-3 11.71 -3 7.42 -3 3 C-2.01 3 -1.02 3 0 3 C0 2.01 0 1.02 0 0 Z M19 22 C19 35.86 19 49.72 19 64 C22.3 64 25.6 64 29 64 C29 50.14 29 36.28 29 22 C25.7 22 22.4 22 19 22 Z " fill="#24FFD4" transform="translate(64,48)"/>
<path d="M0 0 C26.4 0 52.8 0 80 0 C80 0.99 80 1.98 80 3 C80.99 3 81.98 3 83 3 C83 7.29 83 11.58 83 16 C92.57 16 102.14 16 112 16 C112 16.99 112 17.98 112 19 C112.99 19 113.98 19 115 19 C115 24.28 115 29.56 115 35 C114.01 35 113.02 35 112 35 C112 35.99 112 36.98 112 38 C101.44 38 90.88 38 80 38 C80 37.01 80 36.02 80 35 C79.01 35 78.02 35 77 35 C77 30.71 77 26.42 77 22 C52.58 22 28.16 22 3 22 C3 26.29 3 30.58 3 35 C2.01 35 1.02 35 0 35 C0 35.99 0 36.98 0 38 C-10.56 38 -21.12 38 -32 38 C-32 37.01 -32 36.02 -32 35 C-32.99 35 -33.98 35 -35 35 C-35 29.72 -35 24.44 -35 19 C-34.01 19 -33.02 19 -32 19 C-32 18.01 -32 17.02 -32 16 C-22.43 16 -12.86 16 -3 16 C-3 11.71 -3 7.42 -3 3 C-2.01 3 -1.02 3 0 3 C0 2.01 0 1.02 0 0 Z " fill="#24FFD4" transform="translate(112,0)"/>
<path d="M0 0 C2.31 0 4.62 0 7 0 C7 0.99 7 1.98 7 3 C7.99 3 8.98 3 10 3 C10 5.64 10 8.28 10 11 C11.32 11 12.64 11 14 11 C14 11.99 14 12.98 14 14 C16.31 14 18.62 14 21 14 C21 13.01 21 12.02 21 11 C22.32 11 23.64 11 25 11 C25 8.36 25 5.72 25 3 C25.99 3 26.98 3 28 3 C28 2.01 28 1.02 28 0 C30.31 0 32.62 0 35 0 C35 0.99 35 1.98 35 3 C35.99 3 36.98 3 38 3 C38 25.77 38 48.54 38 72 C37.01 72 36.02 72 35 72 C35 72.99 35 73.98 35 75 C32.69 75 30.38 75 28 75 C28 74.01 28 73.02 28 72 C27.01 72 26.02 72 25 72 C24.67 60.45 24.34 48.9 24 37 C23.01 37 22.02 37 21 37 C21 37.99 21 38.98 21 40 C18.69 40 16.38 40 14 40 C14 39.01 14 38.02 14 37 C13.01 37 12.02 37 11 37 C10.67 48.55 10.34 60.1 10 72 C9.01 72 8.02 72 7 72 C7 72.99 7 73.98 7 75 C4.69 75 2.38 75 0 75 C0 74.01 0 73.02 0 72 C-0.99 72 -1.98 72 -3 72 C-3 49.23 -3 26.46 -3 3 C-2.01 3 -1.02 3 0 3 C0 2.01 0 1.02 0 0 Z " fill="#24FFD4" transform="translate(154,202)"/>
<path d="M0 0 C6.93 0 13.86 0 21 0 C21 0.99 21 1.98 21 3 C21.99 3 22.98 3 24 3 C24 5.64 24 8.28 24 11 C25.32 11 26.64 11 28 11 C28 11.99 28 12.98 28 14 C28.99 14 29.98 14 31 14 C31 29.18 31 44.36 31 60 C30.01 60 29.02 60 28 60 C28 60.99 28 61.98 28 63 C26.68 63 25.36 63 24 63 C24 65.97 24 68.94 24 72 C23.01 72 22.02 72 21 72 C21 72.99 21 73.98 21 75 C14.07 75 7.14 75 0 75 C0 74.01 0 73.02 0 72 C-0.99 72 -1.98 72 -3 72 C-3 69.03 -3 66.06 -3 63 C-4.32 63 -5.64 63 -7 63 C-7 62.01 -7 61.02 -7 60 C-7.99 60 -8.98 60 -10 60 C-10 44.82 -10 29.64 -10 14 C-9.01 14 -8.02 14 -7 14 C-7 13.01 -7 12.02 -7 11 C-5.68 11 -4.36 11 -3 11 C-3 8.36 -3 5.72 -3 3 C-2.01 3 -1.02 3 0 3 C0 2.01 0 1.02 0 0 Z M3 17 C3 30.2 3 43.4 3 57 C7.95 57 12.9 57 18 57 C18 43.8 18 30.6 18 17 C13.05 17 8.1 17 3 17 Z " fill="#24FFD4" transform="translate(118,202)"/>
<path d="M0 0 C4.95 0 9.9 0 15 0 C15 0.99 15 1.98 15 3 C15.99 3 16.98 3 18 3 C18 5.64 18 8.28 18 11 C19.32 11 20.64 11 22 11 C22 11.99 22 12.98 22 14 C22.99 14 23.98 14 25 14 C25 33.14 25 52.28 25 72 C24.01 72 23.02 72 22 72 C22 72.99 22 73.98 22 75 C19.69 75 17.38 75 15 75 C15 74.01 15 73.02 15 72 C14.01 72 13.02 72 12 72 C12 65.4 12 58.8 12 52 C9.03 52 6.06 52 3 52 C3 58.6 3 65.2 3 72 C2.01 72 1.02 72 0 72 C0 72.99 0 73.98 0 75 C-2.31 75 -4.62 75 -7 75 C-7 74.01 -7 73.02 -7 72 C-7.99 72 -8.98 72 -10 72 C-10 52.86 -10 33.72 -10 14 C-9.01 14 -8.02 14 -7 14 C-7 13.01 -7 12.02 -7 11 C-5.68 11 -4.36 11 -3 11 C-3 8.36 -3 5.72 -3 3 C-2.01 3 -1.02 3 0 3 C0 2.01 0 1.02 0 0 Z M3 17 C3 22.61 3 28.22 3 34 C5.97 34 8.94 34 12 34 C12 28.39 12 22.78 12 17 C9.03 17 6.06 17 3 17 Z " fill="#24FFD4" transform="translate(10,202)"/>
<path d="M0 0 C6.93 0 13.86 0 21 0 C21 0.99 21 1.98 21 3 C21.99 3 22.98 3 24 3 C24 6.63 24 10.26 24 14 C23.01 14 22.02 14 21 14 C21 14.99 21 15.98 21 17 C15.06 17 9.12 17 3 17 C3 30.2 3 43.4 3 57 C5.64 57 8.28 57 11 57 C11 51.39 11 45.78 11 40 C9.68 40 8.36 40 7 40 C7 39.01 7 38.02 7 37 C6.01 37 5.02 37 4 37 C4 33.37 4 29.74 4 26 C4.99 26 5.98 26 7 26 C7 25.01 7 24.02 7 23 C11.62 23 16.24 23 21 23 C21 23.99 21 24.98 21 26 C21.99 26 22.98 26 24 26 C24 41.18 24 56.36 24 72 C23.01 72 22.02 72 21 72 C21 72.99 21 73.98 21 75 C14.07 75 7.14 75 0 75 C0 74.01 0 73.02 0 72 C-0.99 72 -1.98 72 -3 72 C-3 69.03 -3 66.06 -3 63 C-4.32 63 -5.64 63 -7 63 C-7 62.01 -7 61.02 -7 60 C-7.99 60 -8.98 60 -10 60 C-10 44.82 -10 29.64 -10 14 C-9.01 14 -8.02 14 -7 14 C-7 13.01 -7 12.02 -7 11 C-5.68 11 -4.36 11 -3 11 C-3 8.36 -3 5.72 -3 3 C-2.01 3 -1.02 3 0 3 C0 2.01 0 1.02 0 0 Z " fill="#24FFD4" transform="translate(82,202)"/>
<path d="M0 0 C5.28 0 10.56 0 16 0 C16 0.99 16 1.98 16 3 C16.99 3 17.98 3 19 3 C19 7.29 19 11.58 19 16 C32.86 16 46.72 16 61 16 C61 11.71 61 7.42 61 3 C61.99 3 62.98 3 64 3 C64 2.01 64 1.02 64 0 C69.28 0 74.56 0 80 0 C80 0.99 80 1.98 80 3 C80.99 3 81.98 3 83 3 C83 8.28 83 13.56 83 19 C82.01 19 81.02 19 80 19 C80 19.99 80 20.98 80 22 C75.71 22 71.42 22 67 22 C67 26.29 67 30.58 67 35 C66.01 35 65.02 35 64 35 C64 35.99 64 36.98 64 38 C48.16 38 32.32 38 16 38 C16 37.01 16 36.02 16 35 C15.01 35 14.02 35 13 35 C13 30.71 13 26.42 13 22 C8.71 22 4.42 22 0 22 C0 21.01 0 20.02 0 19 C-0.99 19 -1.98 19 -3 19 C-3 13.72 -3 8.44 -3 3 C-2.01 3 -1.02 3 0 3 C0 2.01 0 1.02 0 0 Z " fill="#24FFD4" transform="translate(112,144)"/>
<path d="M0 0 C4.62 0 9.24 0 14 0 C14 0.99 14 1.98 14 3 C14.99 3 15.98 3 17 3 C17 5.64 17 8.28 17 11 C18.32 11 19.64 11 21 11 C21 11.99 21 12.98 21 14 C21.99 14 22.98 14 24 14 C24 33.14 24 52.28 24 72 C23.01 72 22.02 72 21 72 C21 72.99 21 73.98 21 75 C18.69 75 16.38 75 14 75 C14 74.01 14 73.02 14 72 C13.01 72 12.02 72 11 72 C11 65.4 11 58.8 11 52 C8.36 52 5.72 52 3 52 C3 58.6 3 65.2 3 72 C2.01 72 1.02 72 0 72 C0 72.99 0 73.98 0 75 C-2.31 75 -4.62 75 -7 75 C-7 74.01 -7 73.02 -7 72 C-7.99 72 -8.98 72 -10 72 C-10 52.86 -10 33.72 -10 14 C-9.01 14 -8.02 14 -7 14 C-7 13.01 -7 12.02 -7 11 C-5.68 11 -4.36 11 -3 11 C-3 8.36 -3 5.72 -3 3 C-2.01 3 -1.02 3 0 3 C0 2.01 0 1.02 0 0 Z M3 17 C3 22.61 3 28.22 3 34 C5.64 34 8.28 34 11 34 C11 28.39 11 22.78 11 17 C8.36 17 5.72 17 3 17 Z " fill="#24FFD4" transform="translate(204,202)"/>
<path d="M0 0 C9.57 0 19.14 0 29 0 C29 0.99 29 1.98 29 3 C29.99 3 30.98 3 32 3 C32 6.63 32 10.26 32 14 C31.01 14 30.02 14 29 14 C29 14.99 29 15.98 29 17 C23.06 17 17.12 17 11 17 C11 18.98 11 20.96 11 23 C14.63 23 18.26 23 22 23 C22 23.99 22 24.98 22 26 C22.99 26 23.98 26 25 26 C25 29.63 25 33.26 25 37 C24.01 37 23.02 37 22 37 C22 37.99 22 38.98 22 40 C18.37 40 14.74 40 11 40 C11 45.61 11 51.22 11 57 C16.94 57 22.88 57 29 57 C29 57.99 29 58.98 29 60 C29.99 60 30.98 60 32 60 C32 63.96 32 67.92 32 72 C31.01 72 30.02 72 29 72 C29 72.99 29 73.98 29 75 C19.43 75 9.86 75 0 75 C0 74.01 0 73.02 0 72 C-0.99 72 -1.98 72 -3 72 C-3 49.23 -3 26.46 -3 3 C-2.01 3 -1.02 3 0 3 C0 2.01 0 1.02 0 0 Z " fill="#24FFD4" transform="translate(275,202)"/>
<path d="M0 0 C26.4 0 52.8 0 80 0 C80 6.27 80 12.54 80 19 C53.6 19 27.2 19 0 19 C0 12.73 0 6.46 0 0 Z " fill="#24FFD4" transform="translate(112,0)"/>
<path d="M0 0 C11.88 0 23.76 0 36 0 C36 0.99 36 1.98 36 3 C36.99 3 37.98 3 39 3 C39 6.63 39 10.26 39 14 C38.01 14 37.02 14 36 14 C36 14.99 36 15.98 36 17 C32.37 17 28.74 17 25 17 C25 35.15 25 53.3 25 72 C24.01 72 23.02 72 22 72 C22 72.99 22 73.98 22 75 C19.69 75 17.38 75 15 75 C15 74.01 15 73.02 15 72 C14.01 72 13.02 72 12 72 C12 53.85 12 35.7 12 17 C8.04 17 4.08 17 0 17 C0 16.01 0 15.02 0 14 C-0.99 14 -1.98 14 -3 14 C-3 10.37 -3 6.74 -3 3 C-2.01 3 -1.02 3 0 3 C0 2.01 0 1.02 0 0 Z " fill="#24FFD4" transform="translate(232,202)"/>
<path d="M0 0 C2.31 0 4.62 0 7 0 C7 0.99 7 1.98 7 3 C7.99 3 8.98 3 10 3 C10 20.82 10 38.64 10 57 C16.27 57 22.54 57 29 57 C29 57.99 29 58.98 29 60 C29.99 60 30.98 60 32 60 C32 63.96 32 67.92 32 72 C31.01 72 30.02 72 29 72 C29 72.99 29 73.98 29 75 C19.43 75 9.86 75 0 75 C0 74.01 0 73.02 0 72 C-0.99 72 -1.98 72 -3 72 C-3 49.23 -3 26.46 -3 3 C-2.01 3 -1.02 3 0 3 C0 2.01 0 1.02 0 0 Z " fill="#24FFD4" transform="translate(39,202)"/>
<path d="M0 0 C15.84 0 31.68 0 48 0 C48 6.27 48 12.54 48 19 C32.16 19 16.32 19 0 19 C0 12.73 0 6.46 0 0 Z " fill="#24FFD4" transform="translate(128,163)"/>
<path d="M0 0 C2.31 0 4.62 0 7 0 C7 0.99 7 1.98 7 3 C7.99 3 8.98 3 10 3 C10 25.77 10 48.54 10 72 C9.01 72 8.02 72 7 72 C7 72.99 7 73.98 7 75 C4.69 75 2.38 75 0 75 C0 58.83 0 42.66 0 26 C-2.31 26 -4.62 26 -7 26 C-7 21.05 -7 16.1 -7 11 C-5.68 11 -4.36 11 -3 11 C-3 8.36 -3 5.72 -3 3 C-2.01 3 -1.02 3 0 3 C0 2.01 0 1.02 0 0 Z " fill="#24FFD4" transform="translate(182,202)"/>
<path d="M0 0 C0.99 0 1.98 0 3 0 C3 4.29 3 8.58 3 13 C12.57 13 22.14 13 32 13 C32 13.99 32 14.98 32 16 C32.99 16 33.98 16 35 16 C35 21.28 35 26.56 35 32 C34.01 32 33.02 32 32 32 C32 32.99 32 33.98 32 35 C21.44 35 10.88 35 0 35 C0 23.45 0 11.9 0 0 Z " fill="#24FFD4" transform="translate(192,3)"/>
<path d="M0 0 C6.93 0 13.86 0 21 0 C21 0.99 21 1.98 21 3 C21.99 3 22.98 3 24 3 C24 5.64 24 8.28 24 11 C25.32 11 26.64 11 28 11 C28 11.99 28 12.98 28 14 C25.69 14 23.38 14 21 14 C21 29.18 21 44.36 21 60 C14.07 60 7.14 60 0 60 C0 44.82 0 29.64 0 14 C-2.31 14 -4.62 14 -7 14 C-7 13.01 -7 12.02 -7 11 C-5.68 11 -4.36 11 -3 11 C-3 8.36 -3 5.72 -3 3 C-2.01 3 -1.02 3 0 3 C0 2.01 0 1.02 0 0 Z M3 17 C3 30.2 3 43.4 3 57 C7.95 57 12.9 57 18 57 C18 43.8 18 30.6 18 17 C13.05 17 8.1 17 3 17 Z " fill="#24FFD4" transform="translate(118,202)"/>
<path d="M0 0 C6.93 0 13.86 0 21 0 C21 0.99 21 1.98 21 3 C21.99 3 22.98 3 24 3 C24 6.63 24 10.26 24 14 C23.01 14 22.02 14 21 14 C21 14.99 21 15.98 21 17 C15.06 17 9.12 17 3 17 C3 30.2 3 43.4 3 57 C5.64 57 8.28 57 11 57 C11 51.39 11 45.78 11 40 C9.68 40 8.36 40 7 40 C7 39.01 7 38.02 7 37 C9.31 37 11.62 37 14 37 C14 44.59 14 52.18 14 60 C9.38 60 4.76 60 0 60 C0 44.82 0 29.64 0 14 C-2.31 14 -4.62 14 -7 14 C-7 13.01 -7 12.02 -7 11 C-5.68 11 -4.36 11 -3 11 C-3 8.36 -3 5.72 -3 3 C-2.01 3 -1.02 3 0 3 C0 2.01 0 1.02 0 0 Z " fill="#24FFD4" transform="translate(82,202)"/>
<path d="M0 0 C3.3 0 6.6 0 10 0 C10 15.18 10 30.36 10 46 C9.01 46 8.02 46 7 46 C7 46.99 7 47.98 7 49 C5.68 49 4.36 49 3 49 C3 51.97 3 54.94 3 58 C2.01 58 1.02 58 0 58 C0 38.86 0 19.72 0 0 Z " fill="#24FFD4" transform="translate(139,216)"/>
<path d="M0 0 C4.95 0 9.9 0 15 0 C15 0.99 15 1.98 15 3 C15.99 3 16.98 3 18 3 C18 5.64 18 8.28 18 11 C19.32 11 20.64 11 22 11 C22 11.99 22 12.98 22 14 C19.69 14 17.38 14 15 14 C15 21.59 15 29.18 15 37 C10.05 37 5.1 37 0 37 C0 29.41 0 21.82 0 14 C-2.31 14 -4.62 14 -7 14 C-7 13.01 -7 12.02 -7 11 C-5.68 11 -4.36 11 -3 11 C-3 8.36 -3 5.72 -3 3 C-2.01 3 -1.02 3 0 3 C0 2.01 0 1.02 0 0 Z M3 17 C3 22.61 3 28.22 3 34 C5.97 34 8.94 34 12 34 C12 28.39 12 22.78 12 17 C9.03 17 6.06 17 3 17 Z " fill="#24FFD4" transform="translate(10,202)"/>
<path d="M0 0 C4.62 0 9.24 0 14 0 C14 0.99 14 1.98 14 3 C14.99 3 15.98 3 17 3 C17 5.64 17 8.28 17 11 C18.32 11 19.64 11 21 11 C21 11.99 21 12.98 21 14 C18.69 14 16.38 14 14 14 C14 21.59 14 29.18 14 37 C9.38 37 4.76 37 0 37 C0 29.41 0 21.82 0 14 C-2.31 14 -4.62 14 -7 14 C-7 13.01 -7 12.02 -7 11 C-5.68 11 -4.36 11 -3 11 C-3 8.36 -3 5.72 -3 3 C-2.01 3 -1.02 3 0 3 C0 2.01 0 1.02 0 0 Z M3 17 C3 22.61 3 28.22 3 34 C5.64 34 8.28 34 11 34 C11 28.39 11 22.78 11 17 C8.36 17 5.72 17 3 17 Z " fill="#24FFD4" transform="translate(204,202)"/>
<path d="M0 0 C3.3 0 6.6 0 10 0 C10 15.18 10 30.36 10 46 C6.7 46 3.4 46 0 46 C0 30.82 0 15.64 0 0 Z " fill="#24FFD4" transform="translate(72,216)"/>
<path d="M0 0 C5.28 0 10.56 0 16 0 C16 0.99 16 1.98 16 3 C16.99 3 17.98 3 19 3 C19 8.28 19 13.56 19 19 C18.01 19 17.02 19 16 19 C16 19.99 16 20.98 16 22 C11.71 22 7.42 22 3 22 C3 26.29 3 30.58 3 35 C2.01 35 1.02 35 0 35 C0 23.45 0 11.9 0 0 Z " fill="#24FFD4" transform="translate(176,144)"/>
<path d="M0 0 C6.93 0 13.86 0 21 0 C21 15.18 21 30.36 21 46 C14.07 46 7.14 46 0 46 C0 30.82 0 15.64 0 0 Z M3 3 C3 16.2 3 29.4 3 43 C7.95 43 12.9 43 18 43 C18 29.8 18 16.6 18 3 C13.05 3 8.1 3 3 3 Z " fill="#000000" transform="translate(118,216)"/>
<path d="M0 0 C5.28 0 10.56 0 16 0 C16 15.84 16 31.68 16 48 C10.72 48 5.44 48 0 48 C0 32.16 0 16.32 0 0 Z M3 3 C3 16.86 3 30.72 3 45 C6.3 45 9.6 45 13 45 C13 31.14 13 17.28 13 3 C9.7 3 6.4 3 3 3 Z " fill="#000000" transform="translate(208,67)"/>
<path d="M0 0 C5.28 0 10.56 0 16 0 C16 15.84 16 31.68 16 48 C10.72 48 5.44 48 0 48 C0 32.16 0 16.32 0 0 Z M3 3 C3 16.86 3 30.72 3 45 C6.3 45 9.6 45 13 45 C13 31.14 13 17.28 13 3 C9.7 3 6.4 3 3 3 Z " fill="#000000" transform="translate(80,67)"/>
<path d="M0 0 C26.4 0 52.8 0 80 0 C80 5.28 80 10.56 80 16 C79.01 16 78.02 16 77 16 C77 11.71 77 7.42 77 3 C52.58 3 28.16 3 3 3 C3 7.29 3 11.58 3 16 C2.01 16 1.02 16 0 16 C0 10.72 0 5.44 0 0 Z " fill="#000000" transform="translate(112,19)"/>
<path d="M0 0 C6.93 0 13.86 0 21 0 C21 4.95 21 9.9 21 15 C14.07 15 7.14 15 0 15 C0 10.05 0 5.1 0 0 Z " fill="#24FFD4" transform="translate(118,262)"/>
<path d="M0 0 C6.93 0 13.86 0 21 0 C21 0.99 21 1.98 21 3 C15.06 3 9.12 3 3 3 C3 16.2 3 29.4 3 43 C5.64 43 8.28 43 11 43 C11 37.39 11 31.78 11 26 C9.68 26 8.36 26 7 26 C7 25.01 7 24.02 7 23 C9.31 23 11.62 23 14 23 C14 30.59 14 38.18 14 46 C9.38 46 4.76 46 0 46 C0 30.82 0 15.64 0 0 Z " fill="#000000" transform="translate(82,216)"/>
<path d="M0 0 C26.4 0 52.8 0 80 0 C80 0.99 80 1.98 80 3 C53.6 3 27.2 3 0 3 C0 2.01 0 1.02 0 0 Z " fill="#000000" transform="translate(112,0)"/>
<path d="M0 0 C0.99 0 1.98 0 3 0 C3 17.82 3 35.64 3 54 C9.27 54 15.54 54 22 54 C22 54.99 22 55.98 22 57 C14.74 57 7.48 57 0 57 C0 38.19 0 19.38 0 0 Z " fill="#000000" transform="translate(46,205)"/>
<path d="M0 0 C0.99 0 1.98 0 3 0 C3 4.29 3 8.58 3 13 C16.86 13 30.72 13 45 13 C45 8.71 45 4.42 45 0 C45.99 0 46.98 0 48 0 C48 5.28 48 10.56 48 16 C32.16 16 16.32 16 0 16 C0 10.72 0 5.44 0 0 Z " fill="#000000" transform="translate(128,147)"/>
<path d="M0 0 C4.95 0 9.9 0 15 0 C15 19.14 15 38.28 15 58 C14.01 58 13.02 58 12 58 C12 39.85 12 21.7 12 3 C8.04 3 4.08 3 0 3 C0 2.01 0 1.02 0 0 Z " fill="#000000" transform="translate(232,216)"/>
<path d="M0 0 C4.62 0 9.24 0 14 0 C14 0.99 14 1.98 14 3 C10.37 3 6.74 3 3 3 C3 21.15 3 39.3 3 58 C2.01 58 1.02 58 0 58 C0 38.86 0 19.72 0 0 Z " fill="#000000" transform="translate(254,216)"/>
<path d="M0 0 C0.99 0 1.98 0 3 0 C3 22.77 3 45.54 3 69 C2.01 69 1.02 69 0 69 C0 46.23 0 23.46 0 0 Z " fill="#000000" transform="translate(272,205)"/>
<path d="M0 0 C0.99 0 1.98 0 3 0 C3 22.77 3 45.54 3 69 C2.01 69 1.02 69 0 69 C0 46.23 0 23.46 0 0 Z " fill="#000000" transform="translate(189,205)"/>
<path d="M0 0 C0.99 0 1.98 0 3 0 C3 22.77 3 45.54 3 69 C2.01 69 1.02 69 0 69 C0 46.23 0 23.46 0 0 Z " fill="#000000" transform="translate(151,205)"/>
<path d="M0 0 C0.99 0 1.98 0 3 0 C3 22.77 3 45.54 3 69 C2.01 69 1.02 69 0 69 C0 46.23 0 23.46 0 0 Z " fill="#000000" transform="translate(36,205)"/>
<path d="M0 0 C4.95 0 9.9 0 15 0 C15 7.59 15 15.18 15 23 C10.05 23 5.1 23 0 23 C0 15.41 0 7.82 0 0 Z M3 3 C3 8.61 3 14.22 3 20 C5.97 20 8.94 20 12 20 C12 14.39 12 8.78 12 3 C9.03 3 6.06 3 3 3 Z " fill="#000000" transform="translate(10,216)"/>
<path d="M0 0 C4.62 0 9.24 0 14 0 C14 7.59 14 15.18 14 23 C9.38 23 4.76 23 0 23 C0 15.41 0 7.82 0 0 Z M3 3 C3 8.61 3 14.22 3 20 C5.64 20 8.28 20 11 20 C11 14.39 11 8.78 11 3 C8.36 3 5.72 3 3 3 Z " fill="#000000" transform="translate(204,216)"/>
<path d="M0 0 C2.31 0 4.62 0 7 0 C7 15.18 7 30.36 7 46 C6.01 46 5.02 46 4 46 C3.505 28.675 3.505 28.675 3 11 C2.01 11 1.02 11 0 11 C0 7.37 0 3.74 0 0 Z " fill="#000000" transform="translate(175,228)"/>
<path d="M0 0 C2.31 0 4.62 0 7 0 C7 3.63 7 7.26 7 11 C6.01 11 5.02 11 4 11 C3.67 22.55 3.34 34.1 3 46 C2.01 46 1.02 46 0 46 C0 30.82 0 15.64 0 0 Z " fill="#000000" transform="translate(161,228)"/>
<path d="M0 0 C0.99 0 1.98 0 3 0 C3 19.14 3 38.28 3 58 C2.01 58 1.02 58 0 58 C0 38.86 0 19.72 0 0 Z " fill="#000000" transform="translate(225,216)"/>
<path d="M0 0 C0.99 0 1.98 0 3 0 C3 19.14 3 38.28 3 58 C2.01 58 1.02 58 0 58 C0 38.86 0 19.72 0 0 Z " fill="#000000" transform="translate(194,216)"/>
<path d="M0 0 C0.99 0 1.98 0 3 0 C3 19.14 3 38.28 3 58 C2.01 58 1.02 58 0 58 C0 38.86 0 19.72 0 0 Z " fill="#000000" transform="translate(32,216)"/>
<path d="M0 0 C0.99 0 1.98 0 3 0 C3 19.14 3 38.28 3 58 C2.01 58 1.02 58 0 58 C0 38.86 0 19.72 0 0 Z " fill="#000000" transform="translate(0,216)"/>
<path d="M0 0 C2.31 0 4.62 0 7 0 C7 8.58 7 17.16 7 26 C4.69 26 2.38 26 0 26 C0 17.42 0 8.84 0 0 Z " fill="#24FFD4" transform="translate(168,216)"/>
<path d="M0 0 C4.95 0 9.9 0 15 0 C15 7.59 15 15.18 15 23 C14.01 23 13.02 23 12 23 C12 16.4 12 9.8 12 3 C9.03 3 6.06 3 3 3 C3 9.6 3 16.2 3 23 C2.01 23 1.02 23 0 23 C0 15.41 0 7.82 0 0 Z " fill="#000000" transform="translate(10,251)"/>
<path d="M0 0 C4.62 0 9.24 0 14 0 C14 7.59 14 15.18 14 23 C13.01 23 12.02 23 11 23 C11 16.4 11 9.8 11 3 C8.36 3 5.72 3 3 3 C3 9.6 3 16.2 3 23 C2.01 23 1.02 23 0 23 C0 15.41 0 7.82 0 0 Z " fill="#000000" transform="translate(204,251)"/>
<path d="M0 0 C4.62 0 9.24 0 14 0 C14 0.99 14 1.98 14 3 C10.37 3 6.74 3 3 3 C3 8.61 3 14.22 3 20 C8.94 20 14.88 20 21 20 C21 20.99 21 21.98 21 23 C14.07 23 7.14 23 0 23 C0 15.41 0 7.82 0 0 Z " fill="#000000" transform="translate(283,239)"/>
<path d="M0 0 C15.84 0 31.68 0 48 0 C48 0.99 48 1.98 48 3 C32.16 3 16.32 3 0 3 C0 2.01 0 1.02 0 0 Z " fill="#000000" transform="translate(128,179)"/>
<path d="M0 0 C15.84 0 31.68 0 48 0 C48 0.99 48 1.98 48 3 C32.16 3 16.32 3 0 3 C0 2.01 0 1.02 0 0 Z " fill="#000000" transform="translate(192,131)"/>
<path d="M0 0 C15.84 0 31.68 0 48 0 C48 0.99 48 1.98 48 3 C32.16 3 16.32 3 0 3 C0 2.01 0 1.02 0 0 Z " fill="#000000" transform="translate(64,131)"/>
<path d="M0 0 C0.99 0 1.98 0 3 0 C3 15.84 3 31.68 3 48 C2.01 48 1.02 48 0 48 C0 32.16 0 16.32 0 0 Z " fill="#000000" transform="translate(256,67)"/>
<path d="M0 0 C0.99 0 1.98 0 3 0 C3 15.84 3 31.68 3 48 C2.01 48 1.02 48 0 48 C0 32.16 0 16.32 0 0 Z " fill="#000000" transform="translate(173,67)"/>
<path d="M0 0 C0.99 0 1.98 0 3 0 C3 15.84 3 31.68 3 48 C2.01 48 1.02 48 0 48 C0 32.16 0 16.32 0 0 Z " fill="#000000" transform="translate(128,67)"/>
<path d="M0 0 C0.99 0 1.98 0 3 0 C3 15.84 3 31.68 3 48 C2.01 48 1.02 48 0 48 C0 32.16 0 16.32 0 0 Z " fill="#000000" transform="translate(45,67)"/>
<path d="M0 0 C15.84 0 31.68 0 48 0 C48 0.99 48 1.98 48 3 C32.16 3 16.32 3 0 3 C0 2.01 0 1.02 0 0 Z " fill="#000000" transform="translate(192,48)"/>
<path d="M0 0 C15.84 0 31.68 0 48 0 C48 0.99 48 1.98 48 3 C32.16 3 16.32 3 0 3 C0 2.01 0 1.02 0 0 Z " fill="#000000" transform="translate(64,48)"/>
<path d="M0 0 C0.99 0 1.98 0 3 0 C3 15.18 3 30.36 3 46 C2.01 46 1.02 46 0 46 C0 30.82 0 15.64 0 0 Z " fill="#000000" transform="translate(103,228)"/>
<path d="M0 0 C0.99 0 1.98 0 3 0 C3 15.18 3 30.36 3 46 C2.01 46 1.02 46 0 46 C0 30.82 0 15.64 0 0 Z " fill="#000000" transform="translate(146,216)"/>
<path d="M0 0 C0.99 0 1.98 0 3 0 C3 15.18 3 30.36 3 46 C2.01 46 1.02 46 0 46 C0 30.82 0 15.64 0 0 Z " fill="#000000" transform="translate(108,216)"/>
<path d="M0 0 C0.99 0 1.98 0 3 0 C3 15.18 3 30.36 3 46 C2.01 46 1.02 46 0 46 C0 30.82 0 15.64 0 0 Z " fill="#000000" transform="translate(72,216)"/>
<path d="M0 0 C0.99 0 1.98 0 3 0 C3 5.28 3 10.56 3 16 C-7.56 16 -18.12 16 -29 16 C-29 15.01 -29 14.02 -29 13 C-19.43 13 -9.86 13 0 13 C0 8.71 0 4.42 0 0 Z " fill="#000000" transform="translate(109,3)"/>
<path d="M0 0 C0.99 0 1.98 0 3 0 C3 4.29 3 8.58 3 13 C12.57 13 22.14 13 32 13 C32 13.99 32 14.98 32 16 C21.44 16 10.88 16 0 16 C0 10.72 0 5.44 0 0 Z " fill="#000000" transform="translate(192,3)"/>
<path d="M0 0 C6.93 0 13.86 0 21 0 C21 0.99 21 1.98 21 3 C15.06 3 9.12 3 3 3 C3 4.98 3 6.96 3 9 C6.63 9 10.26 9 14 9 C14 9.99 14 10.98 14 12 C9.38 12 4.76 12 0 12 C0 8.04 0 4.08 0 0 Z " fill="#000000" transform="translate(283,216)"/>
<path d="M0 0 C11.88 0 23.76 0 36 0 C36 0.99 36 1.98 36 3 C24.12 3 12.24 3 0 3 C0 2.01 0 1.02 0 0 Z " fill="#000000" transform="translate(232,202)"/>
<path d="M0 0 C10.56 0 21.12 0 32 0 C32 0.99 32 1.98 32 3 C21.44 3 10.88 3 0 3 C0 2.01 0 1.02 0 0 Z " fill="#000000" transform="translate(192,35)"/>
<path d="M0 0 C10.56 0 21.12 0 32 0 C32 0.99 32 1.98 32 3 C21.44 3 10.88 3 0 3 C0 2.01 0 1.02 0 0 Z " fill="#000000" transform="translate(80,35)"/>
<path d="M0 0 C9.57 0 19.14 0 29 0 C29 0.99 29 1.98 29 3 C19.43 3 9.86 3 0 3 C0 2.01 0 1.02 0 0 Z " fill="#000000" transform="translate(275,274)"/>
<path d="M0 0 C9.57 0 19.14 0 29 0 C29 0.99 29 1.98 29 3 C19.43 3 9.86 3 0 3 C0 2.01 0 1.02 0 0 Z " fill="#000000" transform="translate(39,274)"/>
<path d="M0 0 C9.57 0 19.14 0 29 0 C29 0.99 29 1.98 29 3 C19.43 3 9.86 3 0 3 C0 2.01 0 1.02 0 0 Z " fill="#000000" transform="translate(275,202)"/>
<path d="M0 0 C5.28 0 10.56 0 16 0 C16 0.99 16 1.98 16 3 C11.71 3 7.42 3 3 3 C3 7.29 3 11.58 3 16 C2.01 16 1.02 16 0 16 C0 10.72 0 5.44 0 0 Z " fill="#000000" transform="translate(176,163)"/>
<path d="M0 0 C5.28 0 10.56 0 16 0 C16 5.28 16 10.56 16 16 C15.01 16 14.02 16 13 16 C13 11.71 13 7.42 13 3 C8.71 3 4.42 3 0 3 C0 2.01 0 1.02 0 0 Z " fill="#000000" transform="translate(112,163)"/>
<path d="M0 0 C5.28 0 10.56 0 16 0 C16 0.99 16 1.98 16 3 C11.71 3 7.42 3 3 3 C3 7.29 3 11.58 3 16 C2.01 16 1.02 16 0 16 C0 10.72 0 5.44 0 0 Z " fill="#000000" transform="translate(240,115)"/>
<path d="M0 0 C5.28 0 10.56 0 16 0 C16 5.28 16 10.56 16 16 C15.01 16 14.02 16 13 16 C13 11.71 13 7.42 13 3 C8.71 3 4.42 3 0 3 C0 2.01 0 1.02 0 0 Z " fill="#000000" transform="translate(176,115)"/>
<path d="M0 0 C5.28 0 10.56 0 16 0 C16 0.99 16 1.98 16 3 C11.71 3 7.42 3 3 3 C3 7.29 3 11.58 3 16 C2.01 16 1.02 16 0 16 C0 10.72 0 5.44 0 0 Z " fill="#000000" transform="translate(112,115)"/>
<path d="M0 0 C5.28 0 10.56 0 16 0 C16 5.28 16 10.56 16 16 C15.01 16 14.02 16 13 16 C13 11.71 13 7.42 13 3 C8.71 3 4.42 3 0 3 C0 2.01 0 1.02 0 0 Z " fill="#000000" transform="translate(48,115)"/>
<path d="M0 0 C0.99 0 1.98 0 3 0 C3 4.29 3 8.58 3 13 C7.29 13 11.58 13 16 13 C16 13.99 16 14.98 16 16 C10.72 16 5.44 16 0 16 C0 10.72 0 5.44 0 0 Z " fill="#000000" transform="translate(240,51)"/>
<path d="M0 0 C0.99 0 1.98 0 3 0 C3 5.28 3 10.56 3 16 C-2.28 16 -7.56 16 -13 16 C-13 15.01 -13 14.02 -13 13 C-8.71 13 -4.42 13 0 13 C0 8.71 0 4.42 0 0 Z " fill="#000000" transform="translate(189,51)"/>
<path d="M0 0 C0.99 0 1.98 0 3 0 C3 4.29 3 8.58 3 13 C7.29 13 11.58 13 16 13 C16 13.99 16 14.98 16 16 C10.72 16 5.44 16 0 16 C0 10.72 0 5.44 0 0 Z " fill="#000000" transform="translate(112,51)"/>
<path d="M0 0 C0.99 0 1.98 0 3 0 C3 5.28 3 10.56 3 16 C-2.28 16 -7.56 16 -13 16 C-13 15.01 -13 14.02 -13 13 C-8.71 13 -4.42 13 0 13 C0 8.71 0 4.42 0 0 Z " fill="#000000" transform="translate(61,51)"/>
<path d="M0 0 C2.31 0 4.62 0 7 0 C7 3.96 7 7.92 7 12 C4.69 12 2.38 12 0 12 C0 8.04 0 4.08 0 0 Z " fill="#000000" transform="translate(168,216)"/>
<path d="M0 0 C6.93 0 13.86 0 21 0 C21 0.99 21 1.98 21 3 C14.07 3 7.14 3 0 3 C0 2.01 0 1.02 0 0 Z " fill="#000000" transform="translate(118,274)"/>
<path d="M0 0 C6.93 0 13.86 0 21 0 C21 0.99 21 1.98 21 3 C14.07 3 7.14 3 0 3 C0 2.01 0 1.02 0 0 Z " fill="#000000" transform="translate(82,274)"/>
<path d="M0 0 C6.93 0 13.86 0 21 0 C21 0.99 21 1.98 21 3 C14.07 3 7.14 3 0 3 C0 2.01 0 1.02 0 0 Z " fill="#000000" transform="translate(118,202)"/>
<path d="M0 0 C6.93 0 13.86 0 21 0 C21 0.99 21 1.98 21 3 C14.07 3 7.14 3 0 3 C0 2.01 0 1.02 0 0 Z " fill="#000000" transform="translate(82,202)"/>
<path d="M0 0 C2.31 0 4.62 0 7 0 C7 0.99 7 1.98 7 3 C5.68 3 4.36 3 3 3 C3 5.97 3 8.94 3 12 C2.01 12 1.02 12 0 12 C0 8.04 0 4.08 0 0 Z " fill="#000000" transform="translate(139,262)"/>
<path d="M0 0 C2.31 0 4.62 0 7 0 C7 3.96 7 7.92 7 12 C6.01 12 5.02 12 4 12 C4 9.03 4 6.06 4 3 C2.68 3 1.36 3 0 3 C0 2.01 0 1.02 0 0 Z " fill="#000000" transform="translate(111,262)"/>
<path d="M0 0 C2.31 0 4.62 0 7 0 C7 3.96 7 7.92 7 12 C6.01 12 5.02 12 4 12 C4 9.03 4 6.06 4 3 C2.68 3 1.36 3 0 3 C0 2.01 0 1.02 0 0 Z " fill="#000000" transform="translate(75,262)"/>
<path d="M0 0 C0.99 0 1.98 0 3 0 C3 5.28 3 10.56 3 16 C2.01 16 1.02 16 0 16 C0 10.72 0 5.44 0 0 Z " fill="#000000" transform="translate(192,147)"/>
<path d="M0 0 C0.99 0 1.98 0 3 0 C3 5.28 3 10.56 3 16 C2.01 16 1.02 16 0 16 C0 10.72 0 5.44 0 0 Z " fill="#000000" transform="translate(109,147)"/>
<path d="M0 0 C5.28 0 10.56 0 16 0 C16 0.99 16 1.98 16 3 C10.72 3 5.44 3 0 3 C0 2.01 0 1.02 0 0 Z " fill="#000000" transform="translate(176,144)"/>
<path d="M0 0 C5.28 0 10.56 0 16 0 C16 0.99 16 1.98 16 3 C10.72 3 5.44 3 0 3 C0 2.01 0 1.02 0 0 Z " fill="#000000" transform="translate(112,144)"/>
<path d="M0 0 C0.99 0 1.98 0 3 0 C3 5.28 3 10.56 3 16 C2.01 16 1.02 16 0 16 C0 10.72 0 5.44 0 0 Z " fill="#000000" transform="translate(224,19)"/>
<path d="M0 0 C0.99 0 1.98 0 3 0 C3 5.28 3 10.56 3 16 C2.01 16 1.02 16 0 16 C0 10.72 0 5.44 0 0 Z " fill="#000000" transform="translate(77,19)"/>
<path d="M0 0 C0.99 0 1.98 0 3 0 C3 2.64 3 5.28 3 8 C4.32 8 5.64 8 7 8 C7 8.99 7 9.98 7 11 C4.69 11 2.38 11 0 11 C0 7.37 0 3.74 0 0 Z " fill="#000000" transform="translate(218,205)"/>
<path d="M0 0 C0.99 0 1.98 0 3 0 C3 3.63 3 7.26 3 11 C0.69 11 -1.62 11 -4 11 C-4 10.01 -4 9.02 -4 8 C-2.68 8 -1.36 8 0 8 C0 5.36 0 2.72 0 0 Z " fill="#000000" transform="translate(201,205)"/>
<path d="M0 0 C0.99 0 1.98 0 3 0 C3 3.63 3 7.26 3 11 C0.69 11 -1.62 11 -4 11 C-4 10.01 -4 9.02 -4 8 C-2.68 8 -1.36 8 0 8 C0 5.36 0 2.72 0 0 Z " fill="#000000" transform="translate(179,205)"/>
<path d="M0 0 C0.99 0 1.98 0 3 0 C3 2.64 3 5.28 3 8 C4.32 8 5.64 8 7 8 C7 8.99 7 9.98 7 11 C4.69 11 2.38 11 0 11 C0 7.37 0 3.74 0 0 Z " fill="#000000" transform="translate(161,205)"/>
<path d="M0 0 C0.99 0 1.98 0 3 0 C3 2.64 3 5.28 3 8 C4.32 8 5.64 8 7 8 C7 8.99 7 9.98 7 11 C4.69 11 2.38 11 0 11 C0 7.37 0 3.74 0 0 Z " fill="#000000" transform="translate(139,205)"/>
<path d="M0 0 C0.99 0 1.98 0 3 0 C3 3.63 3 7.26 3 11 C0.69 11 -1.62 11 -4 11 C-4 10.01 -4 9.02 -4 8 C-2.68 8 -1.36 8 0 8 C0 5.36 0 2.72 0 0 Z " fill="#000000" transform="translate(115,205)"/>
<path d="M0 0 C0.99 0 1.98 0 3 0 C3 3.63 3 7.26 3 11 C0.69 11 -1.62 11 -4 11 C-4 10.01 -4 9.02 -4 8 C-2.68 8 -1.36 8 0 8 C0 5.36 0 2.72 0 0 Z " fill="#000000" transform="translate(79,205)"/>
<path d="M0 0 C0.99 0 1.98 0 3 0 C3 2.64 3 5.28 3 8 C4.32 8 5.64 8 7 8 C7 8.99 7 9.98 7 11 C4.69 11 2.38 11 0 11 C0 7.37 0 3.74 0 0 Z " fill="#000000" transform="translate(25,205)"/>
<path d="M0 0 C0.99 0 1.98 0 3 0 C3 3.63 3 7.26 3 11 C0.69 11 -1.62 11 -4 11 C-4 10.01 -4 9.02 -4 8 C-2.68 8 -1.36 8 0 8 C0 5.36 0 2.72 0 0 Z " fill="#000000" transform="translate(7,205)"/>
<path d="M0 0 C4.95 0 9.9 0 15 0 C15 0.99 15 1.98 15 3 C10.05 3 5.1 3 0 3 C0 2.01 0 1.02 0 0 Z " fill="#000000" transform="translate(10,202)"/>
<path d="M0 0 C4.62 0 9.24 0 14 0 C14 0.99 14 1.98 14 3 C9.38 3 4.76 3 0 3 C0 2.01 0 1.02 0 0 Z " fill="#000000" transform="translate(89,225)"/>
<path d="M0 0 C4.62 0 9.24 0 14 0 C14 0.99 14 1.98 14 3 C9.38 3 4.76 3 0 3 C0 2.01 0 1.02 0 0 Z " fill="#000000" transform="translate(204,202)"/>
<path d="M0 0 C0.99 0 1.98 0 3 0 C3 3.96 3 7.92 3 12 C2.01 12 1.02 12 0 12 C0 8.04 0 4.08 0 0 Z " fill="#000000" transform="translate(304,262)"/>
<path d="M0 0 C0.99 0 1.98 0 3 0 C3 3.96 3 7.92 3 12 C2.01 12 1.02 12 0 12 C0 8.04 0 4.08 0 0 Z " fill="#000000" transform="translate(68,262)"/>
<path d="M0 0 C0.99 0 1.98 0 3 0 C3 3.63 3 7.26 3 11 C2.01 11 1.02 11 0 11 C0 7.37 0 3.74 0 0 Z " fill="#000000" transform="translate(297,228)"/>
<path d="M0 0 C0.99 0 1.98 0 3 0 C3 3.63 3 7.26 3 11 C2.01 11 1.02 11 0 11 C0 7.37 0 3.74 0 0 Z " fill="#000000" transform="translate(86,228)"/>
<path d="M0 0 C0.99 0 1.98 0 3 0 C3 3.63 3 7.26 3 11 C2.01 11 1.02 11 0 11 C0 7.37 0 3.74 0 0 Z " fill="#000000" transform="translate(304,205)"/>
<path d="M0 0 C0.99 0 1.98 0 3 0 C3 3.63 3 7.26 3 11 C2.01 11 1.02 11 0 11 C0 7.37 0 3.74 0 0 Z " fill="#000000" transform="translate(268,205)"/>
<path d="M0 0 C0.99 0 1.98 0 3 0 C3 3.63 3 7.26 3 11 C2.01 11 1.02 11 0 11 C0 7.37 0 3.74 0 0 Z " fill="#000000" transform="translate(229,205)"/>
<path d="M0 0 C0.99 0 1.98 0 3 0 C3 3.63 3 7.26 3 11 C2.01 11 1.02 11 0 11 C0 7.37 0 3.74 0 0 Z " fill="#000000" transform="translate(103,205)"/>
<path d="M0 0 C2.31 0 4.62 0 7 0 C7 0.99 7 1.98 7 3 C4.69 3 2.38 3 0 3 C0 2.01 0 1.02 0 0 Z " fill="#000000" transform="translate(247,274)"/>
<path d="M0 0 C2.31 0 4.62 0 7 0 C7 0.99 7 1.98 7 3 C4.69 3 2.38 3 0 3 C0 2.01 0 1.02 0 0 Z " fill="#000000" transform="translate(218,274)"/>
<path d="M0 0 C2.31 0 4.62 0 7 0 C7 0.99 7 1.98 7 3 C4.69 3 2.38 3 0 3 C0 2.01 0 1.02 0 0 Z " fill="#000000" transform="translate(197,274)"/>
<path d="M0 0 C2.31 0 4.62 0 7 0 C7 0.99 7 1.98 7 3 C4.69 3 2.38 3 0 3 C0 2.01 0 1.02 0 0 Z " fill="#000000" transform="translate(182,274)"/>
<path d="M0 0 C2.31 0 4.62 0 7 0 C7 0.99 7 1.98 7 3 C4.69 3 2.38 3 0 3 C0 2.01 0 1.02 0 0 Z " fill="#000000" transform="translate(154,274)"/>
<path d="M0 0 C2.31 0 4.62 0 7 0 C7 0.99 7 1.98 7 3 C4.69 3 2.38 3 0 3 C0 2.01 0 1.02 0 0 Z " fill="#000000" transform="translate(25,274)"/>
<path d="M0 0 C2.31 0 4.62 0 7 0 C7 0.99 7 1.98 7 3 C4.69 3 2.38 3 0 3 C0 2.01 0 1.02 0 0 Z " fill="#000000" transform="translate(3,274)"/>
<path d="M0 0 C2.31 0 4.62 0 7 0 C7 0.99 7 1.98 7 3 C4.69 3 2.38 3 0 3 C0 2.01 0 1.02 0 0 Z " fill="#000000" transform="translate(168,239)"/>
<path d="M0 0 C2.31 0 4.62 0 7 0 C7 0.99 7 1.98 7 3 C4.69 3 2.38 3 0 3 C0 2.01 0 1.02 0 0 Z " fill="#000000" transform="translate(182,202)"/>
<path d="M0 0 C2.31 0 4.62 0 7 0 C7 0.99 7 1.98 7 3 C4.69 3 2.38 3 0 3 C0 2.01 0 1.02 0 0 Z " fill="#000000" transform="translate(154,202)"/>
<path d="M0 0 C2.31 0 4.62 0 7 0 C7 0.99 7 1.98 7 3 C4.69 3 2.38 3 0 3 C0 2.01 0 1.02 0 0 Z " fill="#000000" transform="translate(39,202)"/>
</svg>
